<svg xmlns="http://www.w3.org/2000/svg" width="24" height="24" viewBox="0 0 24 24" fill="none">
<g clip-path="url(#clip0_537_303)">
<path d="M0 11.998C0 18.6254 5.37258 23.998 12 23.998C18.6274 23.998 24 18.6254 24 11.998C24 5.37057 18.6274 -0.00201416 12 -0.00201416C5.37258 -0.00201416 0 5.37057 0 11.998Z" fill="#1D1B1B"/>
<path d="M15 8.02407C15 6.90417 15 6.34417 14.7732 6.06767C14.5762 5.82737 14.2786 5.69237 13.9681 5.70227C13.6106 5.71367 13.1892 6.08247 12.3464 6.81997L8.3761 10.2939C7.901 10.7097 7.6634 10.9175 7.5761 11.1638C7.4994 11.38 7.4994 11.6161 7.5761 11.8323C7.6634 12.0786 7.901 12.2864 8.3761 12.7022L12.3464 16.1761C13.1892 16.9136 13.6106 17.2823 13.9681 17.2937C14.2786 17.3037 14.5762 17.1686 14.7732 16.9284C15 16.6519 15 16.0919 15 14.972V8.02407Z" fill="white"/>
</g>
<defs>
<clipPath id="clip0_537_303">
<rect width="24" height="25" fill="white" transform="matrix(-1 0 0 -1 24 24)"/>
</clipPath>
</defs>
</svg>