<svg xmlns="http://www.w3.org/2000/svg" width="24" height="24" viewBox="0 0 24 24" fill="none">
<g clip-path="url(#clip0_537_298)">
<path d="M24 12.002C24 5.3746 18.6274 0.00201416 12 0.00201416C5.37258 0.00201416 0 5.3746 0 12.002C0 18.6294 5.37258 24.002 12 24.002C18.6274 24.002 24 18.6294 24 12.002Z" fill="#1D1B1B"/>
<path d="M9 15.9759C9 17.0958 9 17.6558 9.22678 17.9323C9.42382 18.1726 9.72136 18.3076 10.0319 18.2977C10.3894 18.2863 10.8108 17.9175 11.6536 17.18L15.6239 13.7061C16.099 13.2903 16.3366 13.0825 16.4239 12.8362C16.5006 12.62 16.5006 12.3839 16.4239 12.1677C16.3366 11.9214 16.099 11.7136 15.6239 11.2978L11.6536 7.82389C10.8108 7.08642 10.3894 6.71768 10.0319 6.70626C9.72136 6.69634 9.42382 6.83135 9.22678 7.07162C9 7.34813 9 7.90809 9 9.02801V15.9759Z" fill="white"/>
</g>
<defs>
<clipPath id="clip0_537_298">
<rect width="24" height="25" fill="white"/>
</clipPath>
</defs>
</svg>